<?xml version="1.0" encoding="UTF-8" standalone="no"?>
<svg
   xmlns:dc="http://purl.org/dc/elements/1.1/"
   xmlns:cc="http://creativecommons.org/ns#"
   xmlns:rdf="http://www.w3.org/1999/02/22-rdf-syntax-ns#"
   xmlns:svg="http://www.w3.org/2000/svg"
   xmlns="http://www.w3.org/2000/svg"
   xmlns:sodipodi="http://sodipodi.sourceforge.net/DTD/sodipodi-0.dtd"
   xmlns:inkscape="http://www.inkscape.org/namespaces/inkscape"
   id="svg1663"
   version="1.1"
   viewBox="0 0 93.074051 17.06245"
   height="17.06245mm"
   width="93.074051mm"
   sodipodi:docname="logo-text.svg"
   inkscape:version="0.92.2 (5c3e80d, 2017-08-06)">
  <sodipodi:namedview
     pagecolor="#ffffff"
     bordercolor="#666666"
     borderopacity="1"
     objecttolerance="10"
     gridtolerance="10"
     guidetolerance="10"
     inkscape:pageopacity="0"
     inkscape:pageshadow="2"
     inkscape:window-width="1916"
     inkscape:window-height="1032"
     id="namedview10"
     showgrid="false"
     inkscape:zoom="0.88408548"
     inkscape:cx="-32.802258"
     inkscape:cy="32.244001"
     inkscape:window-x="0"
     inkscape:window-y="46"
     inkscape:window-maximized="0"
     inkscape:current-layer="layer1" />
  <defs
     id="defs1657" />
  <metadata
     id="metadata1660">
    <rdf:RDF>
      <cc:Work
         rdf:about="">
        <dc:format>image/svg+xml</dc:format>
        <dc:type
           rdf:resource="http://purl.org/dc/dcmitype/StillImage" />
        <dc:title />
      </cc:Work>
    </rdf:RDF>
  </metadata>
  <g
     transform="translate(48.04893,-66.218774)"
     id="layer1">
    <g
       aria-label="   friend"
       style="font-style:normal;font-weight:normal;font-size:10.58333302px;line-height:1.25;font-family:sans-serif;letter-spacing:0px;word-spacing:0px;display:inline;fill:#6cc161;fill-opacity:1;stroke:#6cc161;stroke-width:0.26458332;stroke-opacity:1"
       id="text952-6-3">
      <path
         d="m -7.1418933,82.945732 h 1.5804445 v -8.015111 h 2.5061333 V 73.598532 H -5.5614488 V 69.35391 c 0,-1.196622 0.4741333,-1.580445 1.1514666,-1.580445 0.6321778,0 0.9031112,0.270934 1.1966223,0.654756 l 1.0385778,-0.925689 c -0.4741334,-0.699911 -1.2192001,-1.151467 -2.3706667,-1.151467 -1.5352889,0 -2.5964445,0.903112 -2.5964445,3.002845 v 4.244622 h -1.5127111 v 1.332089 h 1.5127111 z"
         style="font-style:normal;font-variant:normal;font-weight:normal;font-stretch:normal;font-size:22.57777786px;font-family:'Neutra Text';-inkscape-font-specification:'Neutra Text';fill:#6cc161;fill-opacity:1;stroke:#6cc161;stroke-width:0.26458332;stroke-opacity:1"
         id="path824" />
      <path
         d="M -0.56364614,82.945732 H 1.0167983 v -4.921955 c 0,-2.190045 1.0837333,-3.138312 2.4158222,-3.138312 0.5870223,0 0.9934223,0.158045 1.2869334,0.361245 l 0.6096,-1.377245 C 4.9001761,73.575954 4.403465,73.41791 3.7035539,73.41791 c -1.1063111,0 -2.1448889,0.587022 -2.73191115,2.009422 l 0.0451556,-1.8288 h -1.58044444 z"
         style="font-style:normal;font-variant:normal;font-weight:normal;font-stretch:normal;font-size:22.57777786px;font-family:'Neutra Text';-inkscape-font-specification:'Neutra Text';fill:#6cc161;fill-opacity:1;stroke:#6cc161;stroke-width:0.26458332;stroke-opacity:1"
         id="path826" />
      <path
         d="m 8.3415234,70.889199 c 0.5870223,0 1.1288889,-0.451556 1.1288889,-1.106311 0,-0.654756 -0.5418666,-1.128889 -1.1288889,-1.128889 -0.5870222,0 -1.1288889,0.474133 -1.1288889,1.128889 0,0.654755 0.5418667,1.106311 1.1288889,1.106311 z M 7.5513012,82.945732 h 1.5804445 v -9.3472 H 7.5513012 Z"
         style="font-style:normal;font-variant:normal;font-weight:normal;font-stretch:normal;font-size:22.57777786px;font-family:'Neutra Text';-inkscape-font-specification:'Neutra Text';fill:#6cc161;fill-opacity:1;stroke:#6cc161;stroke-width:0.26458332;stroke-opacity:1"
         id="path828" />
      <path
         d="m 13.526652,78.791421 h 7.947378 c 0.112889,-3.093156 -1.693333,-5.396089 -4.696178,-5.396089 -2.731911,0 -4.831644,2.144889 -4.831644,4.8768 0,2.731911 1.986844,4.854222 5.057422,4.854222 1.8288,0 3.070578,-0.654755 3.928533,-1.6256 l -0.970844,-0.948266 c -0.6096,0.677333 -1.557867,1.241777 -2.957689,1.241777 -2.054578,0 -3.273778,-1.2192 -3.476978,-3.002844 z m 0.02258,-1.196622 c 0.248356,-1.715911 1.444978,-2.867378 3.228622,-2.867378 1.964267,0 2.980267,1.264356 3.115734,2.867378 z"
         style="font-style:normal;font-variant:normal;font-weight:normal;font-stretch:normal;font-size:22.57777786px;font-family:'Neutra Text';-inkscape-font-specification:'Neutra Text';fill:#6cc161;fill-opacity:1;stroke:#6cc161;stroke-width:0.26458332;stroke-opacity:1"
         id="path830" />
      <path
         d="m 24.174896,82.945732 h 1.580445 v -5.147733 c 0,-1.851378 1.174044,-2.957689 2.912533,-2.957689 1.557867,0 2.325511,0.948267 2.325511,2.596444 v 5.508978 h 1.580445 v -5.6896 c 0,-2.4384 -1.4224,-3.8608 -3.499556,-3.8608 -1.512711,0 -2.754489,0.790222 -3.364089,2.122311 l 0.04516,-1.919111 h -1.580445 z"
         style="font-style:normal;font-variant:normal;font-weight:normal;font-stretch:normal;font-size:22.57777786px;font-family:'Neutra Text';-inkscape-font-specification:'Neutra Text';fill:#6cc161;fill-opacity:1;stroke:#6cc161;stroke-width:0.26458332;stroke-opacity:1"
         id="path832" />
      <path
         d="m 39.767674,83.126354 c 1.670756,0 2.980267,-0.903111 3.612444,-2.190044 l -0.04516,2.009422 H 44.89283 V 66.644576 h -1.557867 v 8.873067 c -0.677333,-1.241778 -1.806222,-2.122311 -3.589867,-2.122311 -2.528711,0 -4.515555,2.077156 -4.515555,4.854222 0,2.799645 1.986844,4.8768 4.538133,4.8768 z m 0.316089,-1.377244 c -1.964267,0 -3.228622,-1.467556 -3.228622,-3.499556 0,-2.009422 1.264355,-3.4544 3.228622,-3.4544 1.986844,0 3.318933,1.444978 3.318933,3.4544 0,2.032 -1.332089,3.499556 -3.318933,3.499556 z"
         style="font-style:normal;font-variant:normal;font-weight:normal;font-stretch:normal;font-size:22.57777786px;font-family:'Neutra Text';-inkscape-font-specification:'Neutra Text';fill:#6cc161;fill-opacity:1;stroke:#6cc161;stroke-width:0.26458332;stroke-opacity:1"
         id="path834" />
    </g>
    <g
       aria-label="web"
       style="font-style:normal;font-weight:normal;font-size:10.58333302px;line-height:1.25;font-family:sans-serif;letter-spacing:0px;word-spacing:0px;display:inline;fill:#365e92;fill-opacity:1;stroke:#365e92;stroke-width:0.26458332;stroke-opacity:1"
       id="text1131">
      <path
         d="m -44.078416,83.148932 h 0.225778 l 2.6416,-5.621867 c 0.248355,-0.541866 0.451555,-1.377244 0.451555,-1.377244 0,0 0.180622,0.8128 0.451556,1.377244 l 2.573866,5.621867 h 0.225778 l 3.883378,-9.5504 h -1.603022 l -2.009423,5.125156 c -0.248355,0.6096 -0.428977,1.467555 -0.428977,1.467555 0,0 -0.2032,-0.835378 -0.496711,-1.467555 l -2.483556,-5.260623 h -0.2032 l -2.4384,5.2832 c -0.293511,0.6096 -0.474133,1.444978 -0.474133,1.444978 0,0 -0.180623,-0.835378 -0.428978,-1.444978 l -2.009422,-5.147733 h -1.715911 z"
         style="font-style:normal;font-variant:normal;font-weight:normal;font-stretch:normal;font-size:22.57777786px;font-family:'Neutra Text';-inkscape-font-specification:'Neutra Text';fill:#365e92;fill-opacity:1;stroke:#365e92;stroke-width:0.26458332;stroke-opacity:1"
         id="path817" />
      <path
         d="m -30.603363,78.791421 h 7.947378 c 0.112889,-3.093156 -1.693334,-5.396089 -4.696178,-5.396089 -2.731911,0 -4.831645,2.144889 -4.831645,4.8768 0,2.731911 1.986845,4.854222 5.057423,4.854222 1.8288,0 3.070577,-0.654755 3.928533,-1.6256 l -0.970844,-0.948266 c -0.6096,0.677333 -1.557867,1.241777 -2.957689,1.241777 -2.054578,0 -3.273778,-1.2192 -3.476978,-3.002844 z m 0.02258,-1.196622 c 0.248355,-1.715911 1.444977,-2.867378 3.228622,-2.867378 1.964267,0 2.980267,1.264356 3.115733,2.867378 z"
         style="font-style:normal;font-variant:normal;font-weight:normal;font-stretch:normal;font-size:22.57777786px;font-family:'Neutra Text';-inkscape-font-specification:'Neutra Text';fill:#365e92;fill-opacity:1;stroke:#365e92;stroke-width:0.26458332;stroke-opacity:1"
         id="path819" />
      <path
         d="m -14.807385,83.126354 c 2.551289,0 4.538134,-2.077155 4.538134,-4.8768 0,-2.777066 -1.964267,-4.854222 -4.515556,-4.854222 -1.738489,0 -2.912533,0.880533 -3.589867,2.122311 v -8.873067 h -1.557866 v 16.301156 h 1.557866 l -0.04516,-2.009422 c 0.632178,1.286933 1.941689,2.190044 3.612444,2.190044 z m -0.316089,-1.377244 c -1.986844,0 -3.318933,-1.467556 -3.318933,-3.499556 0,-2.009422 1.332089,-3.4544 3.318933,-3.4544 1.964267,0 3.228623,1.444978 3.228623,3.4544 0,2.032 -1.264356,3.499556 -3.228623,3.499556 z"
         style="font-style:normal;font-variant:normal;font-weight:normal;font-stretch:normal;font-size:22.57777786px;font-family:'Neutra Text';-inkscape-font-specification:'Neutra Text';fill:#365e92;fill-opacity:1;stroke:#365e92;stroke-width:0.26458332;stroke-opacity:1"
         id="path821" />
    </g>
  </g>
</svg>
